<mxfile host="app.diagrams.net" modified="2022-06-10T10:23:54.219Z" agent="5.0 (Windows NT 10.0; Win64; x64) AppleWebKit/537.36 (KHTML, like Gecko) Chrome/102.0.5005.63 Safari/537.36" etag="aEgDXvRTWm5CvBjOylF1" version="19.0.3" type="github">
  <diagram id="Wt46SgS3Mah0sonYFf-_" name="Page-1">
    <mxGraphModel dx="1038" dy="579" grid="1" gridSize="10" guides="1" tooltips="1" connect="1" arrows="1" fold="1" page="1" pageScale="1" pageWidth="850" pageHeight="1100" math="0" shadow="0">
      <root>
        <mxCell id="0" />
        <mxCell id="1" parent="0" />
        <mxCell id="XbCv7tlgUBHJbg2_1gYO-30" value="&lt;b&gt;People&lt;/b&gt;" style="text;html=1;strokeColor=none;fillColor=none;align=center;verticalAlign=middle;whiteSpace=wrap;rounded=0;shadow=0;dashed=1;" vertex="1" parent="1">
          <mxGeometry x="40" y="40" width="640" height="40" as="geometry" />
        </mxCell>
        <mxCell id="XbCv7tlgUBHJbg2_1gYO-31" value="" style="rounded=0;whiteSpace=wrap;html=1;shadow=0;strokeColor=#000000;fillColor=none;" vertex="1" parent="1">
          <mxGeometry x="40" y="80" width="640" height="120" as="geometry" />
        </mxCell>
        <mxCell id="XbCv7tlgUBHJbg2_1gYO-32" value="Tutor does not get in contact with Client" style="text;html=1;strokeColor=none;fillColor=none;align=center;verticalAlign=middle;whiteSpace=wrap;rounded=0;shadow=0;" vertex="1" parent="1">
          <mxGeometry x="50" y="100" width="110" height="30" as="geometry" />
        </mxCell>
        <mxCell id="XbCv7tlgUBHJbg2_1gYO-33" value="Tutor confirms assignment then backs out" style="text;html=1;strokeColor=none;fillColor=none;align=center;verticalAlign=middle;whiteSpace=wrap;rounded=0;shadow=0;" vertex="1" parent="1">
          <mxGeometry x="170" y="130" width="110" height="30" as="geometry" />
        </mxCell>
        <mxCell id="XbCv7tlgUBHJbg2_1gYO-34" value="Client dissatifaction" style="text;html=1;strokeColor=none;fillColor=none;align=center;verticalAlign=middle;whiteSpace=wrap;rounded=0;shadow=0;" vertex="1" parent="1">
          <mxGeometry x="310" y="100" width="60" height="30" as="geometry" />
        </mxCell>
        <mxCell id="XbCv7tlgUBHJbg2_1gYO-35" value="No tutors available" style="text;html=1;strokeColor=none;fillColor=none;align=center;verticalAlign=middle;whiteSpace=wrap;rounded=0;shadow=0;" vertex="1" parent="1">
          <mxGeometry x="395" y="140" width="60" height="30" as="geometry" />
        </mxCell>
        <mxCell id="XbCv7tlgUBHJbg2_1gYO-36" value="Payroll does not approve payment quickly" style="text;html=1;strokeColor=none;fillColor=none;align=center;verticalAlign=middle;whiteSpace=wrap;rounded=0;shadow=0;" vertex="1" parent="1">
          <mxGeometry x="520" y="110" width="120" height="30" as="geometry" />
        </mxCell>
        <mxCell id="XbCv7tlgUBHJbg2_1gYO-37" value="&lt;b&gt;Process&lt;/b&gt;" style="text;html=1;strokeColor=none;fillColor=none;align=center;verticalAlign=middle;whiteSpace=wrap;rounded=0;shadow=0;" vertex="1" parent="1">
          <mxGeometry x="40" y="240" width="640" height="30" as="geometry" />
        </mxCell>
        <mxCell id="XbCv7tlgUBHJbg2_1gYO-38" value="" style="rounded=0;whiteSpace=wrap;html=1;shadow=0;strokeColor=#000000;fillColor=none;" vertex="1" parent="1">
          <mxGeometry x="40" y="280" width="640" height="120" as="geometry" />
        </mxCell>
        <mxCell id="XbCv7tlgUBHJbg2_1gYO-39" value="One centre point of communication" style="text;html=1;strokeColor=none;fillColor=none;align=center;verticalAlign=middle;whiteSpace=wrap;rounded=0;shadow=0;" vertex="1" parent="1">
          <mxGeometry x="75" y="310" width="105" height="30" as="geometry" />
        </mxCell>
        <mxCell id="XbCv7tlgUBHJbg2_1gYO-41" value="Some clients wait a long time for assignment" style="text;html=1;strokeColor=none;fillColor=none;align=center;verticalAlign=middle;whiteSpace=wrap;rounded=0;shadow=0;" vertex="1" parent="1">
          <mxGeometry x="290" y="325" width="100" height="30" as="geometry" />
        </mxCell>
        <mxCell id="XbCv7tlgUBHJbg2_1gYO-42" value="&lt;b&gt;System&lt;/b&gt;" style="text;html=1;strokeColor=none;fillColor=none;align=center;verticalAlign=middle;whiteSpace=wrap;rounded=0;shadow=0;" vertex="1" parent="1">
          <mxGeometry x="40" y="440" width="640" height="30" as="geometry" />
        </mxCell>
        <mxCell id="XbCv7tlgUBHJbg2_1gYO-43" value="" style="rounded=0;whiteSpace=wrap;html=1;shadow=0;strokeColor=#000000;fillColor=none;" vertex="1" parent="1">
          <mxGeometry x="40" y="480" width="640" height="120" as="geometry" />
        </mxCell>
        <mxCell id="XbCv7tlgUBHJbg2_1gYO-44" value="Cross referencing takes time" style="text;html=1;strokeColor=none;fillColor=none;align=center;verticalAlign=middle;whiteSpace=wrap;rounded=0;shadow=0;" vertex="1" parent="1">
          <mxGeometry x="120" y="510" width="80" height="30" as="geometry" />
        </mxCell>
        <mxCell id="XbCv7tlgUBHJbg2_1gYO-45" value="Important details can be missed" style="text;html=1;strokeColor=none;fillColor=none;align=center;verticalAlign=middle;whiteSpace=wrap;rounded=0;shadow=0;" vertex="1" parent="1">
          <mxGeometry x="335" y="510" width="85" height="30" as="geometry" />
        </mxCell>
      </root>
    </mxGraphModel>
  </diagram>
</mxfile>
